# xmcd CD database file
#
# Track frame offsets:
#	150
#	14350
#	33229
#	52020
#	75818
#	100138
#	119069
#	140586
#
# Disc length: 2121 seconds
#
# Revision: 0
# Processed by: cddbd v1.5.1PL2 Copyright (c) Steve Scherf et al.
# Submitted via: CDex 1.51
#
DISCID=61084708
DTITLE=Various Artist - Beautiful Everlasting Melody vol.4
DYEAR=2004
DGENRE=Instrumental
TTITLE0=夜明けのスキャット (Scat In The Dark)
TTITLE1=十五夜お月さん (Full Moon)
TTITLE2=叱られて (Scolded Child)
TTITLE3=かなりや (The Canary)
TTITLE4=小さな木の実 (Serenade)
TTITLE5=赤い靴 (Akai Kutsu)
TTITLE6=朧月夜 (Oborozukiyo)
TTITLE7=青い目の人形 (Aoi Me No Ningyo)
EXTD=YEAR: 2004
EXTT0=
EXTT1=
EXTT2=
EXTT3=
EXTT4=
EXTT5=
EXTT6=
EXTT7=
PLAYORDER=
